# xmcd
#
# Track frame offsets: 
#        150
#        9908
#        31813
#        51228
#
# Disc length: 917 seconds
#
# Revision: 0
# Processed by: cddbd v1.5.2PL0 Copyright (c) Steve Scherf et al.
# Submitted via: ExactAudioCopy v0.99pb5
#
DISCID=23039304
DTITLE=Blues Pills - Live at Rockpalast
DYEAR=2014
DGENRE=Blues
TTITLE0=In the Beginning
TTITLE1=Black Smoke
TTITLE2=Little Sun
TTITLE3=Mind Exit
EXTD=
EXTT0=
EXTT1=
EXTT2=
EXTT3=
PLAYORDER=
